<svg id="Capa_1" enable-background="new 0 0 512 512" height="512" viewBox="0 0 512 512" width="512" xmlns="http://www.w3.org/2000/svg"><g><path d="m512 252.1c-.601-28.5-18.701-65.7-64.6-75.601 21.899-34.799 15-74.7-12.001-101.4-24.898-24.899-65.099-32.699-99.898-10.499-9.901-45.901-47.401-64.001-75.601-64.6h-7.8c-28.2.599-65.7 18.699-75.601 64.6-34.499-21.9-74.699-14.7-101.4 11.999-25.199 24.9-32.399 65.101-10.499 99.9-45.899 9.901-63.999 47.401-64.6 75.601 1.199 2.999-4.7 68.699 64.3 83.699-21.6 34.801-14.4 74.401 12.301 101.1 24.898 24.901 65.099 32.401 99.898 10.501 9.901 45.899 47.1 63.999 75.601 64.6h7.8c28.2-.601 65.7-18.701 75.601-64.6 34.499 21.899 74.399 15 101.4-12.001 24.899-24.901 32.399-64.799 10.8-99.6 68.699-15 63.1-80.7 64.299-83.699z" fill="#ff5959"/><path d="m447.7 335.799c21.599 34.801 14.099 74.7-10.8 99.6-27 27.001-66.9 33.901-101.399 12.001-9.901 45.899-47.401 63.999-75.601 64.6h-3.9v-512h3.9c28.2.599 65.7 18.699 75.601 64.6 34.799-22.2 75-14.399 99.899 10.499 27.001 26.7 33.9 66.601 12.001 101.4 45.899 9.901 63.999 47.1 64.6 75.601-1.2 2.999 4.399 68.699-64.301 83.699z" fill="#e63a57"/><path d="m317.199 265-11.4 27.9 93.301 38.699c32.699 13.5 43.2 56.102 15.3 84.001-25.801 25.8-69.001 16.8-82.8-16.501l-38.701-93.3-27.9 11.4 38.701 93.3c0 .3.298.3.298.3 13.2 32.401-9.3 69.6-44.399 70.201h-7.2c-28.2-.601-48.3-24.6-48.3-50.7 0-6.601 1.5-13.2 3.9-19.501 0 0 .298 0 .298-.3l38.701-93.3-27.9-11.4-38.701 93.3c-13.499 33.001-56.1 42.902-84 15.3-25.8-25.8-16.8-69 16.5-82.8l93.301-38.699-11.4-27.9-93.301 38.699c-.298 0-.298.3-.298.3-77.701 32.1-99.6-99.901-19.501-99.901 6.599 0 13.2 1.501 19.501 3.9 0 0 0 .3.298.3l93.304 38.702 11.4-27.902-93.301-38.699c-32.699-13.5-43.2-56.1-15.3-84 25.801-25.501 69.001-17.1 82.8 16.5l38.701 93.3 27.9-11.4-38.701-93.3c0-.3-.298-.3-.298-.3-13.2-32.399 9.3-69.6 44.399-70.199h7.2c28.2.599 48.3 24.6 48.3 51 0 6.299-1.199 12.9-3.9 19.199 0 0-.298 0-.298.3l-38.703 93.3 27.9 11.4 38.701-93.3c13.499-32.999 56.1-42.9 84-15.3 25.8 25.8 16.8 69-16.5 82.8l-93.301 38.699 11.4 27.902 93.301-38.701c.298 0 .298-.3.298-.3 6.301-2.399 12.902-3.9 19.501-3.9 67.5 0 67.8 103.801 0 103.801-6.599 0-13.2-1.5-19.501-3.9 0 0 0-.3-.298-.3z" fill="#ffdf40"/><path d="m317.199 265-11.4 27.9 93.301 38.699c32.699 13.5 43.2 56.102 15.3 84.001-25.801 25.8-69.001 16.8-82.8-16.501l-38.701-93.3-27.9 11.4 38.701 93.3c0 .3.298.3.298.3 13.2 32.401-9.3 69.6-44.399 70.201h-3.599v-450h3.6c28.2.599 48.3 24.6 48.3 51 0 6.299-1.199 12.9-3.9 19.199 0 0-.298 0-.298.3l-38.702 93.3 27.9 11.4 38.701-93.3c13.499-32.999 56.1-42.9 84-15.3 25.8 25.8 16.8 69-16.5 82.8l-93.301 38.699 11.4 27.902 93.301-38.701c.298 0 .298-.3.298-.3 6.301-2.399 12.902-3.9 19.501-3.9 67.5 0 67.8 103.801 0 103.801-6.599 0-13.2-1.5-19.501-3.9 0 0 0-.3-.298-.3z" fill="#ffbe40"/><path d="m111.877 374.521c-.799 4.017-1.119 11.767 5.682 18.61 6.137 6.04 12.316 7.31 16.425 7.31 6.503 0 14.818-3.336 18.648-12.7l20.112-48.487-48.359 20.058c-9.329 3.867-11.855 11.925-12.508 15.209z" fill="#d580ff"/><path d="m91.021 236.431c-.942-.348-1.862-.742-2.758-1.179-2.446-.758-4.683-1.154-6.563-1.154-12.861 0-16.155 5.705-17.395 7.853-4.454 7.715-3.993 20.149 1.073 28.923 4.694 8.13 10.386 8.156 12.554 8.156h.022c2.801 0 5.992-.632 9.512-1.882 1.144-.6 2.332-1.13 3.555-1.582l47.175-19.566z" fill="#d580ff"/><path d="m400.123 137.477c.799-4.017 1.118-11.766-5.681-18.61-6.138-6.039-12.317-7.309-16.427-7.309-6.504 0-14.818 3.336-18.648 12.7l-20.111 48.486 48.358-20.058c9.329-3.867 11.856-11.925 12.509-15.209z" fill="#96f"/><path d="m236.435 91.029 19.565 47.168 19.566-47.168c.432-1.17.934-2.305 1.501-3.402.547-1.782.832-3.696.832-5.626 0-9.841-7.139-20.608-18.693-21h-6.492c-8.15.221-12.799 5.442-14.852 8.552-3.633 5.503-4.613 12.254-2.754 18.419.496.989.939 2.008 1.327 3.057z" fill="#d580ff"/><path d="m133.555 111.513c-3.896 0-9.621 1.072-14.81 6.168-7.853 7.9-7.659 15.946-6.841 20.045 1.355 6.791 5.891 12.238 12.489 14.962l48.352 20.055-20.096-48.448c-3.871-9.424-12.402-12.782-19.094-12.782z" fill="#d580ff"/><path d="m445.682 240.013c-3.454-3.98-8.485-5.915-15.382-5.915-1.88 0-4.117.396-6.563 1.154-.895.436-1.815.831-2.756 1.178l-47.177 19.57 47.176 19.568c.943.349 1.863.743 2.761 1.18 2.441.757 4.678 1.152 6.56 1.152 6.944 0 11.993-1.923 15.436-5.879 3.369-3.873 5.303-9.681 5.303-15.935-.002-6.293-1.954-12.151-5.358-16.073z" fill="#96f"/><path d="m275.566 420.97-19.566-47.168-19.566 47.169c-.348.941-.742 1.863-1.178 2.757-.759 2.446-1.156 4.687-1.156 6.572 0 9.696 7.139 20.308 18.692 20.7h6.491c8.152-.222 12.801-5.443 14.854-8.553 3.633-5.504 4.614-12.256 2.753-18.422-.494-.989-.937-2.008-1.324-3.055z" fill="#d580ff"/><g fill="#96f"><path d="m276.89 424.02c1.86 6.17.88 12.92-2.75 18.43-2.06 3.11-6.7 8.33-14.86 8.55h-3.28v-77.2l19.57 47.17c.38 1.05.83 2.07 1.32 3.05z"/><path d="m275.57 91.03-19.57 47.17v-77.2h3.21c11.55.39 18.69 11.16 18.69 21 0 1.93-.29 3.84-.83 5.63-.57 1.09-1.07 2.23-1.5 3.4z"/><path d="m387.606 359.31-48.351-20.055 20.06 48.36c3.946 9.523 12.575 12.917 19.335 12.917 3.829 0 9.459-1.066 14.537-6.145 7.922-7.922 7.729-16.003 6.908-20.115-1.354-6.791-5.89-12.238-12.489-14.962z"/></g><path d="m256 223.529-23.05 9.419-9.419 23.052 9.419 23.05 23.05 9.419 23.05-9.418 9.419-23.051-9.419-23.052z" fill="#ffdf40"/><path d="m421 255.099c0-26.7-18.3-45-37.8-51.899 4.801-10.499 5.7-19.801 5.7-24.901 0-14.399-5.7-28.2-16.8-39.3-10.499-10.199-24-15.899-38.399-15.899-5.101 0-14.401.899-24.901 5.7-7.2-19.801-24.901-37.5-52.8-37.8h-.901c-26.699 0-45 18.6-51.899 37.8-10.499-4.801-19.799-5.7-24.901-5.7-14.399 0-28.2 5.7-39.3 16.8-10.199 10.499-15.899 24-15.899 38.399 0 10.201 2.999 18.9 5.7 24.901-20.099 7.2-37.8 25.499-37.8 53.699 0 27.001 18.6 45 37.8 51.901-2.701 5.7-5.7 14.399-5.7 24.899 0 14.401 5.7 28.2 16.8 39.3 10.499 10.201 24 15.901 38.399 15.901 5.101 0 14.401-.901 24.901-5.7 7.2 19.501 24.901 37.5 52.8 37.8h.901c26.699 0 45-18.3 51.899-37.8 10.499 4.799 19.799 5.7 24.901 5.7 14.399 0 28.2-5.7 39.3-16.8 10.199-10.501 15.899-24 15.899-38.401 0-5.099-.899-14.7-6-25.199 27.3-9.6 38.1-31.8 38.1-53.401z" fill="#fcf"/><path d="m382.899 308.5c5.101 10.499 6 20.099 6 25.199 0 14.401-5.7 27.9-15.899 38.401-11.1 11.1-24.901 16.8-39.3 16.8-5.101 0-14.401-.901-24.901-5.7-6.899 19.501-25.201 37.8-51.899 37.8h-.9v-330c27.9.3 45.601 17.999 52.8 37.8 10.499-4.801 19.799-5.7 24.901-5.7 14.399 0 27.9 5.7 38.399 15.899 11.1 11.1 16.8 24.901 16.8 39.3 0 5.099-.899 14.401-5.7 24.901 19.501 6.899 37.8 25.199 37.8 51.899 0 21.601-10.8 43.801-38.101 53.401z" fill="#ffb3e6"/><path d="m170.438 307.68c-.015.015-.029.015-.044.015-16.036 6.682-17.255 22.354-17.255 25.831 0 15.939 13.938 25.296 25.29 25.296 3.466 0 19.176-1.32 25.876-17.216l.007-.018c.004-.009.004-.016.007-.026l.004.002 23.961-57.856-57.85 23.963z" fill="#4d4d80"/><path d="m216.799 255.996-57.698-23.903v.015c-1.548-.619-5.354-2.234-10.906-2.234-11.751 0-27.106 8.729-27.194 25.452.091 19.904 17.01 26.73 27.219 26.73 3.624 0 7.256-.69 10.692-2.086z" fill="#4d4d80"/><path d="m341.562 204.32c.009-.004.016-.004.026-.007l.018-.007c17.129-7.22 23.24-30.055 10.107-43.286-14.431-14.272-36.882-7.728-44.086 9.538l-23.907 57.722 57.843-23.956z" fill="#443d66"/><path d="m204.32 170.438c-11.065-26.557-51.117-20.977-51.117 8.031 0 5.04 1.871 19.027 17.191 25.836l57.891 23.979-23.965-57.861z" fill="#4d4d80"/><path d="m363.754 229.902c-3.631 0-7.267.703-10.708 2.133l-.004-.007c-.051.022-.092.059-.143.081v-.015l-57.713 23.904 57.713 23.908v-.015c.051.022.092.059.143.081l.004-.007c3.438 1.405 7.071 2.099 10.699 2.099 11.865 0 27.166-8.609 27.255-25.39-.091-19.943-17.12-26.772-27.246-26.772z" fill="#443d66"/><path d="m256 391c-.3 0-.3 0-.601 0-18.9 0-30.599-20.7-23.399-38.101l24-57.599 24 57.599c6.901 16.8-3.6 37.5-24 38.101z" fill="#4d4d80"/><path d="m341.605 307.694-.013-.005c-.011-.004-.02-.005-.031-.009l.002-.004-57.849-23.961 23.961 57.849.004-.002c.004.009.004.016.007.026l.007.018c7.322 17.372 30.185 23.046 43.286 10.107 14.327-14.421 7.65-36.843-9.374-44.019z" fill="#443d66"/><path d="m282.1 147.999c0 3.6-.601 7.202-2.1 10.801v.298l-24 57.602-24-57.601c0-.298 0-.599-.3-.599-6.301-16.8 3.9-36.901 24.3-37.5h.601c15 0 25.499 13.5 25.499 26.999z" fill="#4d4d80"/><path d="m280 352.899c7.006 16.93-3.576 37.441-24 38.101v-95.7z"/><path d="m280 159.099-24 57.601v-95.7h.601c15.01 0 25.559 13.426 25.559 27.08 0 3.615-.72 7.24-2.16 10.721z"/><path d="m280 352.899c6.901 16.8-3.6 37.5-24 38.101v-95.7z" fill="#443d66"/><path d="m280 159.099-24 57.601v-95.7h.601c15 0 25.499 13.5 25.499 26.999 0 3.6-.601 7.202-2.1 10.801z" fill="#443d66"/><path d="m256 181c-41.4 0-75 33.6-75 75s33.6 75 75 75 75-33.6 75-75-33.6-75-75-75z" fill="#4d4d80"/><path d="m331 256c0 41.4-33.6 75-75 75v-150c41.4 0 75 33.6 75 75z" fill="#443d66"/><circle cx="256" cy="256" fill="#ffdf40" r="45"/><path d="m301 256c0 24.81-20.19 45-45 45v-90c24.81 0 45 20.19 45 45z" fill="#ffbe40"/><path d="m240.938 240.938h30.123v30.123h-30.123z" fill="#ff5959" transform="matrix(.707 -.707 .707 .707 -106.038 255.984)"/><path d="m277.301 256-21.301 21.299v-42.6z" fill="#e63a57"/></g></svg>